<?xml version="1.0" standalone="no"?>
<!DOCTYPE svg PUBLIC "-//W3C//DTD SVG 20010904//EN"
 "http://www.w3.org/TR/2001/REC-SVG-20010904/DTD/svg10.dtd">
<svg version="1.0" xmlns="http://www.w3.org/2000/svg"
 width="24px" height="24px" viewBox="0 0 3873.000000 3873.000000"
 preserveAspectRatio="xMidYMid meet">

<g transform="translate(0.000000,3873.000000) scale(0.100000,-0.100000)"
fill="#000000" stroke="none">
<path d="M19194 28325 c-278 -42 -532 -146 -776 -318 -759 -534 -1610 -1316
-2283 -2098 -255 -297 -506 -617 -770 -982 -68 -95 -86 -116 -65 -77 8 16 8
18 -4 14 -9 -3 -13 -15 -10 -29 4 -24 -16 -48 -37 -43 -7 2 -14 -6 -16 -17 -3
-19 -3 -19 5 -1 5 11 11 15 14 10 4 -5 -3 -21 -14 -34 -11 -14 -17 -20 -14
-13 4 6 1 15 -6 19 -7 4 -10 4 -6 -1 4 -4 3 -14 -3 -22 -8 -9 -8 -13 -1 -13 6
0 -39 -76 -100 -170 -95 -145 -113 -168 -126 -157 -13 10 -14 9 -4 -10 11 -20
0 -45 -11 -26 -2 5 -2 2 -1 -4 4 -17 -6 -44 -15 -39 -4 3 -13 0 -21 -6 -12 -8
-12 -9 3 -4 9 3 17 3 17 1 0 -3 -28 -51 -63 -108 -194 -313 -402 -695 -607
-1109 -81 -164 -151 -294 -155 -290 -5 4 -5 1 -1 -6 8 -13 -23 -94 -33 -87 -3
1 -7 -7 -7 -18 -2 -32 -99 -248 -108 -240 -4 4 -4 1 -1 -8 3 -8 -15 -64 -40
-124 -152 -360 -355 -953 -484 -1405 -173 -610 -349 -1458 -367 -1762 -20
-362 93 -760 305 -1070 101 -148 156 -205 504 -521 171 -155 336 -306 367
-335 30 -29 198 -182 372 -340 l317 -287 -26 -20 c-15 -11 -335 -236 -712
-500 -377 -265 -929 -651 -1226 -860 -297 -208 -668 -468 -825 -578 -428 -300
-515 -371 -677 -561 -125 -146 -220 -290 -309 -471 -62 -127 -100 -230 -243
-660 -93 -281 -219 -656 -280 -835 -198 -587 -338 -1000 -461 -1365 -67 -198
-175 -517 -240 -710 -65 -192 -223 -658 -350 -1035 -324 -957 -474 -1406 -494
-1472 -58 -202 -73 -504 -36 -725 59 -347 219 -667 459 -916 111 -115 203
-185 571 -433 195 -131 454 -305 575 -387 121 -81 275 -185 343 -230 l123 -82
-1148 -5 -1148 -5 -47 -22 c-66 -30 -133 -96 -165 -162 -39 -79 -39 -182 -1
-262 36 -71 89 -125 158 -158 l55 -26 2285 -2 2285 -2 -84 25 c-135 40 -214
87 -311 184 -59 59 -97 107 -122 155 -63 123 -62 113 -143 720 -25 182 -63
465 -85 630 -22 165 -54 399 -70 520 -17 121 -37 270 -45 330 -26 196 -142
1054 -210 1555 -24 179 -62 462 -85 630 -23 168 -61 454 -86 635 -24 182 -53
400 -65 485 -11 85 -26 200 -34 255 -8 55 -19 136 -25 180 -17 126 -77 571
-105 780 -14 105 -41 305 -60 445 -19 140 -55 408 -80 595 -25 187 -51 376
-57 420 -32 238 29 431 186 587 86 86 211 151 331 173 66 11 398 16 1835 25
965 5 2360 15 3100 20 740 6 2022 15 2850 20 828 5 2531 17 3785 26 1254 9
2363 14 2465 11 156 -3 194 -7 243 -25 268 -98 432 -311 444 -577 5 -102 5
-105 -157 -1565 -27 -245 -65 -591 -85 -770 -19 -179 -73 -669 -120 -1090 -46
-421 -132 -1197 -190 -1725 -58 -528 -121 -1099 -140 -1270 -19 -170 -66 -600
-105 -955 -38 -355 -77 -701 -86 -769 -26 -210 -76 -321 -204 -452 -83 -84
-168 -137 -288 -178 l-77 -26 -2165 -5 -2165 -5 2600 -1 c1430 -1 3383 1 4340
5 l1740 6 56 26 c71 33 125 87 158 158 35 75 36 181 2 258 -27 62 -102 135
-169 166 l-47 22 -969 5 -969 5 64 41 c35 23 264 169 509 324 244 155 473 302
507 326 331 236 571 608 653 1012 42 208 44 418 6 637 -9 50 -92 338 -185 640
-93 303 -289 939 -436 1415 -147 476 -302 980 -345 1120 -105 342 -498 1616
-655 2125 -70 226 -141 457 -157 515 -34 119 -122 406 -198 650 -102 325 -199
520 -377 752 -89 116 -309 331 -419 410 -67 47 -474 305 -2254 1428 -102 64
-320 201 -485 304 -165 104 -306 194 -313 201 -14 12 7 32 917 899 348 332
429 415 503 520 27 39 53 70 57 69 4 -1 8 4 8 10 0 23 55 107 65 100 6 -3 8
-1 5 5 -10 15 3 43 16 35 5 -3 7 -1 4 4 -9 15 67 176 77 166 5 -4 6 -3 2 4 -4
7 9 63 29 125 69 218 98 499 76 723 -36 347 -278 1336 -506 2065 -238 760
-457 1317 -843 2145 -352 757 -842 1566 -1346 2225 -117 153 -362 455 -428
528 -22 24 -36 48 -32 54 4 6 3 8 -3 5 -13 -8 -46 27 -36 38 5 4 3 5 -3 2 -11
-6 -111 102 -107 115 2 5 -1 7 -5 5 -11 -3 -163 158 -157 167 3 3 2 4 -1 1 -4
-2 -91 78 -194 178 -401 392 -817 732 -1251 1024 -426 286 -610 376 -899 440
-97 21 -147 25 -320 28 -141 3 -233 0 -296 -10z m781 -7416 c750 -50 1446
-189 2145 -428 412 -140 520 -206 641 -389 57 -86 85 -158 106 -267 33 -168
-21 -988 -97 -1480 -231 -1492 -836 -2346 -1985 -2798 -295 -116 -597 -204
-1010 -293 -211 -46 -350 -49 -605 -15 -910 121 -1607 436 -2164 980 -659 645
-1069 1577 -1206 2746 -40 346 -52 732 -25 860 8 39 35 112 61 164 38 76 61
108 132 180 101 101 162 136 363 209 883 323 1812 502 2834 546 130 6 648 -4
810 -15z"/>
<path d="M11875 27660 c-753 -5 -833 -7 -867 -22 -43 -19 -46 -24 -19 -24 11
0 18 3 16 7 -16 25 104 29 883 29 530 0 813 3 817 10 3 6 5 9 3 8 -2 -2 -376
-5 -833 -8z"/>
<path d="M12716 27643 c-6 -14 -5 -15 5 -6 7 7 10 15 7 18 -3 3 -9 -2 -12 -12z"/>
<path d="M13058 27653 c12 -2 30 -2 40 0 9 3 -1 5 -23 4 -22 0 -30 -2 -17 -4z"/>
<path d="M13130 27640 c8 -5 22 -9 30 -9 10 0 8 3 -5 9 -27 12 -43 12 -25 0z"/>
<path d="M11128 27633 c28 -2 76 -2 105 0 28 2 5 3 -53 3 -58 0 -81 -1 -52 -3z"/>
<path d="M11458 27633 c56 -2 148 -2 205 0 56 1 10 3 -103 3 -113 0 -159 -2
-102 -3z"/>
<path d="M11953 27633 c9 -2 23 -2 30 0 6 3 -1 5 -18 5 -16 0 -22 -2 -12 -5z"/>
<path d="M12113 27633 c26 -2 67 -2 90 0 23 2 2 3 -48 3 -49 0 -68 -1 -42 -3z"/>
<path d="M12338 27633 c12 -2 32 -2 45 0 12 2 2 4 -23 4 -25 0 -35 -2 -22 -4z"/>
<path d="M12498 27633 c12 -2 32 -2 45 0 12 2 2 4 -23 4 -25 0 -35 -2 -22 -4z"/>
<path d="M12646 27628 c3 -5 10 -6 15 -3 13 9 11 12 -6 12 -8 0 -12 -4 -9 -9z"/>
<path d="M12676 27624 c-5 -14 -4 -15 9 -4 17 14 19 20 6 20 -5 0 -12 -7 -15
-16z"/>
<path d="M13203 27605 c0 -7 6 -11 14 -8 7 3 13 6 13 8 0 2 -6 5 -13 8 -8 3
-14 -1 -14 -8z"/>
<path d="M10922 27577 c-22 -23 -28 -34 -17 -34 8 0 13 3 10 5 -3 3 7 18 22
34 15 15 25 28 22 28 -3 0 -20 -15 -37 -33z"/>
<path d="M13220 27579 c-12 -9 -12 -10 4 -5 11 4 23 1 28 -6 7 -10 9 -10 6 1
-6 20 -20 23 -38 10z"/>
<path d="M13270 27556 c0 -2 8 -10 18 -17 15 -13 16 -12 3 4 -13 16 -21 21
-21 13z"/>
<path d="M10865 27499 c-9 -16 -18 -53 -21 -82 -5 -62 2 -52 11 15 3 26 9 47
13 47 19 -3 26 2 14 10 -11 6 -10 11 3 25 9 9 12 16 6 16 -6 0 -18 -14 -26
-31z"/>
<path d="M13310 27495 c0 -5 5 -17 10 -25 5 -8 10 -10 10 -5 0 6 -5 17 -10 25
-5 8 -10 11 -10 5z"/>
<path d="M13332 27430 c0 -14 2 -19 5 -12 2 6 2 18 0 25 -3 6 -5 1 -5 -13z"/>
<path d="M13343 27360 c0 -25 2 -35 4 -22 2 12 2 32 0 45 -2 12 -4 2 -4 -23z"/>
<path d="M10841 27329 c0 -19 4 -43 9 -54 6 -13 7 -2 3 30 -7 59 -13 72 -12
24z"/>
<path d="M13301 27268 c-1 -21 15 -32 25 -17 4 7 3 9 -4 5 -6 -3 -13 2 -15 11
-4 16 -5 16 -6 1z"/>
<path d="M10865 27250 c-6 -9 11 -50 21 -50 2 0 0 9 -6 20 -6 11 -8 25 -5 30
3 6 4 10 1 10 -3 0 -8 -4 -11 -10z"/>
<path d="M13280 27190 c-6 -11 -8 -20 -6 -20 3 0 10 9 16 20 6 11 8 20 6 20
-3 0 -10 -9 -16 -20z"/>
<path d="M10915 27161 c17 -18 42 -39 58 -47 39 -21 33 -10 -9 15 -22 13 -33
26 -28 34 4 6 3 9 -1 4 -5 -4 -18 1 -29 10 -12 10 -7 3 9 -16z"/>
<path d="M13209 27119 l-24 -20 28 17 c15 9 27 18 27 20 0 8 -8 4 -31 -17z"/>
<path d="M12005 27120 c-3 -5 -1 -10 4 -10 6 0 11 5 11 10 0 6 -2 10 -4 10 -3
0 -8 -4 -11 -10z"/>
<path d="M11025 27110 c3 -6 0 -10 -7 -10 -8 0 -6 -5 5 -11 10 -6 25 -8 35 -6
11 3 9 5 -8 6 -18 1 -21 4 -12 10 11 7 10 9 -3 14 -9 4 -13 3 -10 -3z"/>
<path d="M12016 27101 c-19 -7 -19 -8 0 -13 13 -3 21 0 21 8 0 8 -1 14 -1 13
-1 0 -10 -4 -20 -8z"/>
<path d="M13140 27090 c-18 -12 -2 -12 25 0 13 6 15 9 5 9 -8 0 -22 -4 -30 -9z"/>
<path d="M11313 27073 c130 -2 344 -2 475 0 130 1 23 2 -238 2 -261 0 -368 -1
-237 -2z"/>
<path d="M12293 27073 c126 -2 328 -2 450 0 122 1 20 2 -228 2 -247 0 -347 -1
-222 -2z"/>
<path d="M13053 27073 c9 -2 25 -2 35 0 9 3 1 5 -18 5 -19 0 -27 -2 -17 -5z"/>
<path d="M22112 26711 c16 -28 50 -39 40 -13 -4 12 -7 13 -10 3 -3 -10 -10 -7
-25 10 l-19 24 14 -24z"/>
<path d="M24268 26713 c7 -3 16 -2 19 1 4 3 -2 6 -13 5 -11 0 -14 -3 -6 -6z"/>
<path d="M24315 26670 c3 -5 14 -10 23 -10 15 0 15 2 2 10 -20 13 -33 13 -25
0z"/>
<path d="M22196 26631 c-3 -4 6 -19 21 -32 24 -23 25 -23 14 -2 -8 16 -8 23 2
27 6 3 1 3 -12 0 -16 -4 -21 -3 -17 5 4 6 5 11 2 11 -3 0 -7 -4 -10 -9z"/>
<path d="M22250 26567 c0 -2 14 -16 32 -33 18 -16 26 -20 18 -10 -14 18 -13
19 5 12 15 -5 17 -4 9 4 -6 6 -18 12 -25 13 -8 2 -20 6 -26 10 -7 5 -13 7 -13
4z"/>
<path d="M22351 26476 c-9 -11 -9 -16 1 -22 35 -22 58 -6 29 20 -16 14 -20 15
-30 2z m28 -9 c8 -10 7 -14 -4 -14 -8 0 -15 6 -15 14 0 7 2 13 4 13 2 0 9 -6
15 -13z"/>
<path d="M24483 26395 c0 -22 2 -30 4 -17 2 12 2 30 0 40 -3 9 -5 -1 -4 -23z"/>
<path d="M22406 26402 c-3 -5 1 -9 9 -9 8 0 12 4 9 9 -3 4 -7 8 -9 8 -2 0 -6
-4 -9 -8z"/>
<path d="M22456 26398 c3 -5 10 -6 15 -3 13 9 11 12 -6 12 -8 0 -12 -4 -9 -9z"/>
<path d="M22511 26323 c3 -20 -2 -27 -11 -13 -6 10 -10 11 -10 3 0 -7 14 -27
31 -45 17 -18 28 -28 25 -21 -3 6 -1 13 6 15 8 3 8 9 -1 24 -9 13 -11 14 -7 2
7 -24 -5 -30 -20 -10 -8 11 -9 21 -3 29 7 7 6 14 -1 18 -6 4 -10 3 -9 -2z"/>
<path d="M24436 26273 c-6 -14 -5 -15 5 -6 7 7 10 15 7 18 -3 3 -9 -2 -12 -12z"/>
<path d="M24377 26237 c-8 -6 -7 -7 5 -4 9 3 18 2 20 -3 2 -4 9 -2 15 5 10 11
9 13 -8 12 -11 -1 -25 -5 -32 -10z"/>
<path d="M22574 26205 c13 -14 28 -25 34 -25 6 0 12 -6 15 -12 3 -7 4 -3 4 8
-1 13 -6 20 -13 17 -7 -3 -19 5 -26 16 -7 12 -18 21 -25 21 -7 0 -2 -11 11
-25z"/>
<path d="M22600 26209 c0 -5 5 -7 10 -4 6 3 10 8 10 11 0 2 -4 4 -10 4 -5 0
-10 -5 -10 -11z"/>
<path d="M24355 26200 c-16 -7 -17 -9 -3 -9 9 -1 20 4 23 9 7 11 7 11 -20 0z"/>
<path d="M24320 26181 c0 -5 -15 -13 -32 -17 -18 -4 -28 -9 -22 -11 19 -6 80
22 66 31 -7 4 -12 3 -12 -3z"/>
<path d="M22696 26155 c4 -8 11 -15 16 -15 6 0 5 6 -2 15 -7 8 -14 15 -16 15
-2 0 -1 -7 2 -15z"/>
<path d="M22645 26150 c-29 -8 -29 -8 7 -7 20 1 34 5 32 9 -3 4 -6 7 -7 7 -1
-1 -15 -5 -32 -9z"/>
<path d="M13808 24883 c6 -2 18 -2 25 0 6 3 1 5 -13 5 -14 0 -19 -2 -12 -5z"/>
<path d="M15286 24882 c-2 -4 4 -8 15 -8 10 0 19 4 19 8 0 4 -6 8 -14 8 -8 0
-17 -4 -20 -8z"/>
<path d="M13703 24855 c-52 -26 -86 -55 -64 -55 6 0 11 5 11 11 0 6 7 8 16 5
9 -3 12 -2 9 4 -4 6 14 20 39 31 25 11 46 22 46 24 0 8 -3 6 -57 -20z"/>
<path d="M13655 24790 c-3 -5 -1 -10 4 -10 6 0 11 5 11 10 0 6 -2 10 -4 10 -3
0 -8 -4 -11 -10z"/>
<path d="M13608 24773 c-28 -33 -31 -48 -4 -19 15 15 25 30 23 32 -2 2 -11 -4
-19 -13z"/>
<path d="M15170 24726 c0 -2 8 -10 18 -17 15 -13 16 -12 3 4 -13 16 -21 21
-21 13z"/>
<path d="M15135 24690 c-3 -5 -1 -10 4 -10 6 0 11 5 11 10 0 6 -2 10 -4 10 -3
0 -8 -4 -11 -10z"/>
<path d="M15151 24663 c3 -19 -2 -27 -10 -14 -5 8 -11 9 -15 3 -9 -16 21 -22
34 -7 8 9 8 15 0 20 -6 4 -10 3 -9 -2z"/>
<path d="M13552 24605 c0 -16 2 -22 5 -12 2 9 2 23 0 30 -3 6 -5 -1 -5 -18z"/>
<path d="M15123 24615 c0 -8 4 -12 9 -9 5 3 6 10 3 15 -9 13 -12 11 -12 -6z"/>
<path d="M15053 24563 c4 -3 1 -13 -6 -22 -11 -14 -10 -14 5 -2 16 12 16 31 1
31 -4 0 -3 -3 0 -7z"/>
<path d="M13552 24540 c0 -14 2 -19 5 -12 2 6 2 18 0 25 -3 6 -5 1 -5 -13z"/>
<path d="M15063 24526 c-6 -8 -9 -17 -6 -20 4 -3 1 -6 -5 -6 -7 0 -11 -3 -11
-7 3 -21 -3 -24 -18 -12 -16 13 -17 12 -4 -3 16 -22 23 -18 50 27 20 35 17 47
-6 21z"/>
<path d="M14974 24465 c8 -8 17 -15 20 -15 3 0 3 7 0 15 -4 8 -13 15 -21 15
-12 0 -12 -2 1 -15z"/>
<path d="M13580 24465 c0 -5 5 -17 10 -25 5 -8 10 -10 10 -5 0 6 -5 17 -10 25
-5 8 -10 11 -10 5z"/>
<path d="M15007 24430 c-8 -11 -17 -17 -22 -12 -5 4 -5 1 -1 -6 9 -15 22 -8
36 19 14 25 5 25 -13 -1z"/>
<path d="M13656 24365 c10 -8 23 -15 28 -15 6 0 1 7 -10 15 -10 8 -23 15 -28
15 -6 0 -1 -7 10 -15z"/>
<path d="M13725 24320 c11 -5 27 -9 35 -9 9 0 8 4 -5 9 -11 5 -27 9 -35 9 -9
0 -8 -4 5 -9z"/>
<path d="M14890 24315 c-10 -12 -10 -15 2 -15 8 0 15 7 15 15 0 8 -1 15 -2 15
-2 0 -8 -7 -15 -15z"/>
<path d="M13798 24303 c7 -3 16 -2 19 1 4 3 -2 6 -13 5 -11 0 -14 -3 -6 -6z"/>
<path d="M14078 24303 c133 -2 351 -2 485 0 133 1 24 2 -243 2 -267 0 -376 -1
-242 -2z"/>
<path d="M11958 23023 c6 -2 18 -2 25 0 6 3 1 5 -13 5 -14 0 -19 -2 -12 -5z"/>
<path d="M12558 23023 c309 -2 815 -2 1125 0 309 1 56 2 -563 2 -619 0 -872
-1 -562 -2z"/>
<path d="M14210 22999 c0 -5 5 -7 10 -4 6 3 10 8 10 11 0 2 -4 4 -10 4 -5 0
-10 -5 -10 -11z"/>
<path d="M11819 22979 l-24 -20 30 17 c39 24 40 24 28 24 -6 0 -21 -9 -34 -21z"/>
<path d="M11898 22983 c7 -3 16 -2 19 1 4 3 -2 6 -13 5 -11 0 -14 -3 -6 -6z"/>
<path d="M14170 22946 c13 -13 13 -29 0 -21 -6 4 -7 -1 -3 -11 5 -14 8 -13 19
7 18 33 17 38 -6 36 -13 -1 -16 -5 -10 -11z"/>
<path d="M14143 22856 l-3 -31 15 29 c18 34 18 33 3 33 -7 0 -14 -14 -15 -31z"/>
<path d="M11705 22838 l-16 -33 20 25 c20 24 26 40 16 40 -2 0 -12 -15 -20
-32z"/>
<path d="M14094 22766 c-10 -8 -16 -18 -11 -22 4 -4 7 -2 7 5 0 7 4 10 9 7 5
-3 11 1 15 9 7 19 5 19 -20 1z"/>
<path d="M11681 22744 c0 -11 3 -14 6 -6 3 7 2 16 -1 19 -3 4 -6 -2 -5 -13z"/>
<path d="M11696 22637 c3 -10 9 -15 12 -12 3 3 0 11 -7 18 -10 9 -11 8 -5 -6z"/>
<path d="M14045 22629 c-4 -6 -5 -12 -2 -15 2 -3 7 2 10 11 7 17 1 20 -8 4z"/>
<path d="M14017 22589 c6 -23 9 -24 16 -5 3 8 0 17 -7 19 -10 4 -12 -1 -9 -14z"/>
<path d="M14006 22545 c-9 -26 -7 -32 5 -12 6 10 9 21 6 23 -2 3 -7 -2 -11
-11z"/>
<path d="M13970 22480 c0 -5 5 -10 10 -10 6 0 10 5 10 10 0 6 -4 10 -10 10 -5
0 -10 -4 -10 -10z"/>
<path d="M11836 22471 c5 -5 23 -12 39 -16 30 -6 30 -6 -4 10 -38 17 -49 19
-35 6z"/>
<path d="M11938 22443 c12 -2 30 -2 40 0 9 3 -1 5 -23 4 -22 0 -30 -2 -17 -4z"/>
<path d="M12483 22443 c268 -2 706 -2 975 0 268 1 48 2 -488 2 -536 0 -756 -1
-487 -2z"/>
<path d="M26058 18733 c254 -2 670 -2 925 0 254 1 46 2 -463 2 -509 0 -717 -1
-462 -2z"/>
<path d="M27545 18700 c3 -5 11 -10 16 -10 6 0 7 5 4 10 -3 6 -11 10 -16 10
-6 0 -7 -4 -4 -10z"/>
<path d="M25577 18663 c-3 -16 -9 -37 -12 -48 -5 -15 -4 -16 3 -6 5 7 12 9 14
5 3 -5 3 -4 2 3 -2 6 1 26 6 42 5 17 5 31 1 31 -5 0 -11 -12 -14 -27z"/>
<path d="M27612 18654 c10 -10 20 -16 22 -13 3 3 -5 11 -17 18 -21 13 -21 12
-5 -5z"/>
<path d="M27643 18602 c-1 -22 0 -24 9 -8 6 10 6 22 2 26 -5 5 -10 -3 -11 -18z"/>
<path d="M27667 18587 c-3 -8 1 -14 8 -14 7 0 11 6 8 14 -3 7 -6 13 -8 13 -2
0 -5 -6 -8 -13z"/>
<path d="M25551 18574 c0 -11 3 -14 6 -6 3 7 2 16 -1 19 -3 4 -6 -2 -5 -13z"/>
<path d="M27690 18530 c0 -11 4 -20 9 -20 5 0 7 9 4 20 -3 11 -7 20 -9 20 -2
0 -4 -9 -4 -20z"/>
<path d="M25527 18507 c-3 -8 1 -14 8 -14 7 0 11 6 8 14 -3 7 -6 13 -8 13 -2
0 -5 -6 -8 -13z"/>
<path d="M25477 18385 c-11 -23 -12 -32 -4 -31 19 3 37 16 37 29 0 6 -7 2 -15
-9 -8 -10 -14 -14 -15 -9 0 15 13 31 29 37 13 4 13 5 -1 10 -10 4 -20 -4 -31
-27z"/>
<path d="M27701 18384 c-1 -11 -12 -42 -25 -67 -13 -26 -18 -42 -10 -36 18 15
47 94 41 111 -3 7 -6 4 -6 -8z"/>
<path d="M25502 18344 c-7 -8 -8 -14 -3 -14 10 0 25 19 20 25 -2 1 -10 -3 -17
-11z"/>
<path d="M27624 18238 l-19 -23 23 19 c21 18 27 26 19 26 -2 0 -12 -10 -23
-22z"/>
<path d="M27570 18246 c0 -2 7 -7 16 -10 8 -3 12 -2 9 4 -6 10 -25 14 -25 6z"/>
<path d="M25397 18233 c-6 -11 -2 -51 6 -58 4 -3 5 -2 2 1 -2 4 0 16 6 26 11
20 -3 50 -14 31z"/>
<path d="M25366 18183 c-6 -14 -5 -15 5 -6 7 7 10 15 7 18 -3 3 -9 -2 -12 -12z"/>
<path d="M27525 18170 c-3 -6 1 -7 9 -4 18 7 21 14 7 14 -6 0 -13 -4 -16 -10z"/>
<path d="M27458 18153 c6 -2 18 -2 25 0 6 3 1 5 -13 5 -14 0 -19 -2 -12 -5z"/>
<path d="M28278 15953 c7 -3 16 -2 19 1 4 3 -2 6 -13 5 -11 0 -14 -3 -6 -6z"/>
<path d="M28648 15953 c7 -3 16 -2 19 1 4 3 -2 6 -13 5 -11 0 -14 -3 -6 -6z"/>
<path d="M29880 15950 c319 -3 453 -8 473 -17 29 -14 38 -29 10 -18 -14 5 -15
3 -6 -5 7 -8 17 -9 28 -3 14 8 11 13 -22 29 -36 18 -66 19 -483 19 l-445 1
445 -6z"/>
<path d="M29008 15933 c6 -2 18 -2 25 0 6 3 1 5 -13 5 -14 0 -19 -2 -12 -5z"/>
<path d="M28123 15886 c-15 -13 -26 -26 -23 -28 3 -2 18 9 34 24 35 34 27 37
-11 4z"/>
<path d="M30326 15893 c-6 -14 -5 -15 5 -6 7 7 10 15 7 18 -3 3 -9 -2 -12 -12z"/>
<path d="M30390 15894 c-18 -10 -20 -14 -8 -14 9 0 20 5 23 10 4 6 11 7 17 4
6 -4 2 -12 -12 -19 -19 -10 -20 -13 -6 -18 10 -4 15 -3 11 3 -4 6 3 9 16 7 25
-4 62 -44 53 -58 -3 -5 -1 -9 5 -9 5 0 13 -9 16 -21 4 -11 9 -18 12 -16 9 9
-35 82 -69 113 -30 28 -35 30 -58 18z"/>
<path d="M30327 15859 c7 -7 15 -10 18 -7 3 3 -2 9 -12 12 -14 6 -15 5 -6 -5z"/>
<path d="M28055 15800 c-9 -16 -13 -30 -11 -30 3 0 12 14 21 30 9 17 13 30 11
30 -3 0 -12 -13 -21 -30z"/>
<path d="M30490 15750 c6 -11 13 -20 16 -20 2 0 0 9 -6 20 -6 11 -13 20 -16
20 -2 0 0 -9 6 -20z"/>
<path d="M30526 15709 c5 -52 -5 -131 -16 -124 -5 3 -6 -5 -3 -17 3 -17 2 -19
-5 -10 -7 11 -10 11 -15 -3 -4 -9 -3 -13 3 -10 13 8 13 -1 0 -26 -6 -10 -8
-19 -5 -19 11 0 43 84 50 130 3 25 1 63 -4 85 l-10 40 5 -46z"/>
<path d="M28022 15675 c0 -16 2 -22 5 -12 2 9 2 23 0 30 -3 6 -5 -1 -5 -18z"/>
<path d="M28072 15660 c0 -14 2 -19 5 -12 2 6 2 18 0 25 -3 6 -5 1 -5 -13z"/>
<path d="M28050 15545 c0 -5 10 -21 21 -35 13 -17 17 -18 10 -5 -17 33 -31 51
-31 40z"/>
<path d="M30407 15515 c-4 -8 -2 -17 4 -21 6 -3 8 -12 5 -20 -3 -7 0 -16 5
-20 7 -4 7 -10 0 -17 -8 -8 -14 -8 -23 1 -7 7 -17 12 -22 12 -6 0 -3 -5 7 -11
18 -10 18 -11 0 -25 -16 -13 -14 -13 12 0 17 8 44 29 60 48 17 18 26 30 21 26
-12 -10 -38 11 -29 25 3 6 1 7 -6 3 -9 -6 -9 -11 -1 -21 7 -8 7 -16 2 -19 -11
-6 -26 22 -23 42 3 17 -6 15 -12 -3z m53 -39 c0 -2 -6 -9 -14 -15 -11 -9 -16
-9 -22 0 -4 7 -3 9 4 5 6 -3 13 -2 17 4 6 10 15 14 15 6z"/>
<path d="M30465 15519 c-4 -6 -5 -12 -2 -15 2 -3 7 2 10 11 7 17 1 20 -8 4z"/>
<path d="M28152 15424 c10 -10 20 -16 22 -13 3 3 -5 11 -17 18 -21 13 -21 12
-5 -5z"/>
<path d="M30318 15423 c7 -3 16 -2 19 1 4 3 -2 6 -13 5 -11 0 -14 -3 -6 -6z"/>
<path d="M30347 15416 c-17 -13 -17 -14 0 -20 10 -4 14 -4 10 0 -4 4 -2 13 4
21 14 17 9 16 -14 -1z"/>
<path d="M28198 15398 c5 -5 16 -8 23 -6 8 3 3 7 -10 11 -17 4 -21 3 -13 -5z"/>
<path d="M29265 15400 c-3 -5 -1 -10 4 -10 6 0 11 5 11 10 0 6 -2 10 -4 10 -3
0 -8 -4 -11 -10z"/>
<path d="M30298 15403 c7 -3 16 -2 19 1 4 3 -2 6 -13 5 -11 0 -14 -3 -6 -6z"/>
<path d="M29760 15380 l-545 -5 540 -2 c297 -1 549 2 560 7 11 5 13 8 5 7 -8
-1 -260 -4 -560 -7z"/>
<path d="M16875 10328 c-42 -15 -86 -48 -79 -59 3 -5 0 -8 -7 -7 -7 2 -24 -17
-38 -42 -34 -59 -36 -147 -4 -205 11 -22 27 -39 34 -37 8 2 11 0 6 -4 -4 -4 3
-19 15 -32 21 -23 22 -25 3 -18 -154 56 -315 -53 -315 -214 0 -235 321 -314
431 -106 15 29 29 44 37 41 8 -3 189 -105 403 -227 312 -177 388 -224 383
-237 -29 -65 -97 -285 -116 -371 -31 -144 -33 -501 -4 -655 21 -113 61 -251
101 -344 14 -35 23 -67 18 -71 -15 -14 -784 -450 -793 -450 -6 0 -16 15 -24
33 -60 143 -281 174 -382 54 -65 -77 -72 -186 -18 -273 43 -70 117 -107 199
-101 33 2 69 8 80 12 15 6 12 0 -11 -26 -50 -54 -68 -97 -68 -164 0 -71 25
-126 78 -172 46 -41 95 -56 171 -51 75 5 131 37 172 100 25 37 28 51 28 123 0
73 -3 86 -28 124 -16 24 -27 44 -25 46 11 10 800 456 802 453 80 -121 266
-305 409 -405 l77 -55 0 -304 0 -304 204 0 205 0 3 161 3 161 28 24 c38 32 72
31 108 -5 l29 -29 0 -156 0 -156 145 0 145 0 0 156 0 156 29 29 c18 17 40 29
56 29 16 0 38 -12 56 -29 l29 -29 0 -156 0 -156 145 0 145 0 0 156 0 156 29
29 c18 17 40 29 56 29 16 0 38 -12 56 -29 l29 -29 0 -156 0 -156 205 0 205 0
0 305 0 304 60 41 c81 55 173 132 246 205 63 64 156 173 172 201 8 14 26 6
135 -56 70 -39 132 -68 139 -64 6 4 8 3 5 -3 -4 -6 104 -74 261 -163 147 -84
268 -153 270 -155 1 -1 -11 -28 -28 -60 -50 -95 -37 -198 35 -270 45 -45 98
-65 171 -65 152 1 262 159 209 300 -7 19 -18 34 -25 32 -6 -1 -9 2 -5 8 9 14
-14 42 -28 33 -5 -3 -7 -1 -3 5 3 6 2 13 -4 17 -23 14 -8 23 21 13 82 -28 207
18 256 95 32 49 42 143 23 202 -52 157 -276 198 -388 71 -18 -21 -37 -49 -42
-62 -5 -13 -14 -24 -20 -24 -5 0 -84 43 -175 95 -91 53 -170 93 -177 89 -6 -4
-8 -3 -5 3 3 5 -95 67 -219 137 -123 71 -224 129 -224 131 0 1 13 35 30 75 34
83 84 257 100 347 54 315 11 695 -111 980 -11 25 -18 47 -16 49 8 8 793 454
799 454 4 0 14 -15 22 -33 21 -52 83 -105 139 -122 63 -19 71 -19 135 0 102
31 161 111 162 219 0 159 -161 266 -315 210 -14 -5 -8 5 17 31 89 91 89 223
-1 316 -53 54 -107 74 -187 67 -173 -14 -263 -217 -161 -362 16 -23 17 -30 6
-37 -60 -38 -790 -451 -792 -448 -86 120 -260 295 -385 387 -230 170 -508 284
-797 328 -115 18 -384 20 -490 5 -323 -47 -594 -158 -845 -347 -100 -76 -272
-246 -330 -327 -23 -33 -39 -46 -49 -42 -9 4 -83 44 -164 91 -81 47 -153 82
-159 78 -6 -4 -8 -3 -5 3 3 5 -94 67 -216 136 -122 70 -228 131 -235 136 -11
7 -8 17 14 51 33 50 45 149 24 203 -21 51 -60 99 -77 93 -8 -3 -11 -1 -8 4 4
6 -13 19 -37 30 -47 21 -125 25 -173 8z m1862 -1693 c154 -46 267 -214 248
-368 -29 -232 -283 -378 -492 -283 -73 33 -153 112 -186 183 -31 68 -31 208 1
273 81 167 256 246 429 195z m1503 -12 c66 -30 145 -105 176 -170 40 -81 45
-188 12 -269 -47 -116 -132 -191 -251 -220 -119 -30 -238 6 -333 101 -149 148
-124 400 50 520 29 20 73 43 97 51 61 19 191 13 249 -13z"/>
</g>
</svg>
